<svg aria-hidden="true" style="position: absolute; width: 0; height: 0; overflow: hidden;" version="1.1" xmlns="http://www.w3.org/2000/svg" xmlns:xlink="http://www.w3.org/1999/xlink">
<defs>
<symbol id="icon-microphone" viewBox="0 0 32 32">
<path d="M16.401 25.911v2.995c2.995 0.162 5.312 1.154 5.312 2.078 0 0.023-12.282 0.023-12.282 0 0-0.891 2.144-1.851 4.979-2.064v-3.021c-3.619-0.519-6.41-3.6-6.41-7.363v-1.493h0.996v1.493c0 3.574 2.897 6.472 6.471 6.473h0.004c3.574-0.001 6.533-2.898 6.533-6.473v-1.493h0.996v1.493c0 3.806-2.919 6.911-6.599 7.375zM15.468 23.951c-3.024 0-5.478-2.453-5.478-5.478v-1.431h11.018v1.431c0 3.025-2.516 5.478-5.54 5.478zM9.99 7.475c0-3.025 2.453-5.477 5.478-5.477s5.54 2.452 5.54 5.477v8.572h-11.018v-8.572z"></path>
</symbol>
<symbol id="icon-volume" viewBox="0 0 32 32">
<path d="M23.325 28.934l-8.38-5.84v-13.251l8.38-5.777c1.105 0 2.689 0.836 2.689 1.867v21.133c0.001 1.032-1.583 1.868-2.689 1.868zM14.013 22.898h-6.027c-1.105 0-2-1.322-2-2.354v-8.090c0-1.030 0.896-2.495 2-2.495h6.027v12.939z"></path>
</symbol>
<symbol id="icon-target" viewBox="0 0 32 32">
<path d="M28.122 3.584l-2.147 1.898-1.303 0.020-2.73 2.855c1.76 1.87 2.846 4.383 2.846 7.154 0 5.773-4.681 10.455-10.455 10.455s-10.454-4.682-10.454-10.455c0-5.774 4.681-10.455 10.454-10.455 2.645 0 5.053 0.989 6.894 2.608l2.635-2.635 0.002-1.161 2.022-2.335-0.002 2.079 2.238-0.028zM20.885 9.414l-2.658 2.659c0.9 0.977 1.463 2.27 1.463 3.703 0 3.025-2.451 5.476-5.476 5.476s-5.477-2.451-5.477-5.476c0-3.024 2.452-5.477 5.477-5.477 1.231 0 2.355 0.421 3.271 1.107l2.686-2.686c-1.569-1.35-3.605-2.171-5.838-2.171-4.949 0-8.961 4.013-8.961 8.962s4.012 8.96 8.961 8.96 8.961-4.012 8.961-8.96c-0.001-2.358-0.919-4.497-2.409-6.097zM14.172 17.352c-0.824 0-1.493-0.668-1.493-1.493s0.669-1.494 1.493-1.494c0.104 0 0.196 0.039 0.295 0.060l2.313-2.313c-0.728-0.511-1.609-0.816-2.566-0.816-2.475 0-4.48 2.007-4.48 4.481s2.006 4.48 4.48 4.48 4.48-2.006 4.48-4.48c0-1.158-0.451-2.203-1.173-2.999l-2.185 2.186c0.193 0.252 0.329 0.554 0.329 0.896 0.001 0.824-0.668 1.492-1.493 1.492zM9.855 26.748c0.297 0.15 0.602 0.285 0.915 0.406l-1.768 3.062c-0.138 0.238-0.442 0.318-0.681 0.182-0.237-0.137-0.319-0.441-0.182-0.68l1.716-2.97zM14.856 27.531v1.395c0 0.275-0.224 0.498-0.498 0.498-0.275 0-0.498-0.223-0.498-0.498v-1.395c0.166 0.008 0.33 0.025 0.498 0.025s0.332-0.017 0.498-0.025zM20.951 29.719c0.137 0.238 0.056 0.543-0.183 0.68s-0.542 0.057-0.681-0.182l-1.767-3.062c0.312-0.121 0.618-0.256 0.915-0.406l1.716 2.97z"></path>
</symbol>
<symbol id="icon-cw" viewBox="0 0 20 20">
<path d="M19.315 10h-2.372v-0.205c-0.108-4.434-3.724-7.996-8.169-7.996-4.515 0-8.174 3.672-8.174 8.201s3.659 8.199 8.174 8.199c1.898 0 3.645-0.65 5.033-1.738l-1.406-1.504c-1.016 0.748-2.27 1.193-3.627 1.193-3.386 0-6.131-2.754-6.131-6.15s2.745-6.15 6.131-6.15c3.317 0 6.018 2.643 6.125 5.945v0.205h-2.672l3.494 3.894 3.594-3.894z"></path>
</symbol>
</defs>
</svg>
